<svg enable-background="new 0 0 300 100" viewBox="0 0 300 100" xmlns="http://www.w3.org/2000/svg"><path d="m180.36 6.39-8.43 17.55 12.53-9.07z"/><g clip-rule="evenodd" fill-rule="evenodd"><path d="m185.27 16.22-5.79 12.02-26.66 19.36-2.08-6.28z"/><path d="m178.06 31.23-5.8 12.02-8.18 5.95h-10.75z"/><path d="m153.76 53.81c0-1.05-.38-1.95-1.11-2.65-.71-.71-1.6-1.09-2.66-1.09-1.04 0-1.92.38-2.66 1.09-.71.71-1.09 1.6-1.09 2.65 0 1.01.38 1.91 1.09 2.61.73.73 1.62 1.11 2.66 1.11 1.07 0 1.95-.38 2.66-1.11.73-.71 1.11-1.6 1.11-2.61"/><path d="m155.4 55.53 4-2.91 6.76 4.91-8.2 5.94z"/><path d="m115.55 14.87 4.11-8.48 8.4 17.55z"/><path d="m120.49 28.24-5.77-12.02 34.56 25.1-2.08 6.28z"/><path d="m127.71 43.25-5.77-12.02 24.72 17.97h-10.75z"/><path d="m140.59 52.62 4.05 2.91-2.58 7.94-8.23-5.94z"/><path d="m149.98 69.25-6.73-4.89 6.73-4.9 6.76 4.9z"/></g><path d="m135.6 93.6 3.92-13.88 3.94 13.88h.86l4.28-15.12h-.8l-3.92 13.81-3.9-13.81h-.91l-3.9 13.81-3.91-13.81h-.8l4.28 15.12z"/><path d="m157.03 85.71h9.01v.77h-9.01z"/><path d="m175 78.48v15.13h.77v-6.41h4.64c.09 0 .17-.01.26-.02l4.05 6.42h.91l-4.13-6.55c1.88-.48 3.28-2.19 3.28-4.22 0-2.4-1.96-4.36-4.36-4.36h-4.64-.78zm9.01 4.36c0 1.98-1.61 3.59-3.59 3.59h-4.64v-7.18h4.64c1.98 0 3.59 1.61 3.59 3.59"/><path d="m157.03 92.84h9.01v.77h-9.01z"/><path d="m157.03 78.51h9.01v.77h-9.01z"/><path d="m92.93 93.6 4.42-12.46 4.43 12.46h2.04l-5.4-15.12h-2.13l-5.4 15.12z"/><path d="m209.11 79.84-1.36-1.37-6.14 6.14-6.13-6.14-1.36 1.37 6.13 6.13-6.13 6.14 1.36 1.36 6.13-6.14 6.14 6.14 1.36-1.36-6.13-6.14z"/><path d="m114.36 93.6v-6.55h7.45v-1.54h-7.45v-5.51h7.45v-1.52h-8.99v15.12z"/></svg>