<svg id="Layer_1_copy" data-name="Layer 1 copy" xmlns="http://www.w3.org/2000/svg" viewBox="0 0 808.07 732.26"><defs><style>.cls-1{fill:#fff;}.cls-2{fill:#002d5d;}</style></defs><g id="BYU_Medallion_All_Blue" data-name="BYU Medallion All Blue"><path class="cls-1" d="M387.64,25.44C203,25.44,53.38,175.1,53.38,359.71S203,694,387.64,694,721.89,544.3,721.89,359.71,572.25,25.44,387.64,25.44Z"/><path class="cls-2" d="M387.64,695.47A335.76,335.76,0,0,1,150.22,122.29,335.76,335.76,0,0,1,625.05,597.12a333.49,333.49,0,0,1-237.41,98.35Zm0-668.53c-183.49,0-332.76,149.28-332.76,332.77S204.15,692.47,387.64,692.47,720.39,543.2,720.39,359.71,571.12,26.94,387.64,26.94Z"/><path class="cls-2" d="M401.54,41.41C225.81,33.74,77.1,170,69.43,345.73S198,670.15,373.74,677.79s324.43-128.56,332.1-304.28S577.27,49.08,401.54,41.41Z"/><path class="cls-1" d="M387.64,142.33c-120,0-217.26,97.26-217.26,217.28s97.28,217.26,217.26,217.26S604.91,479.6,604.91,359.61,507.65,142.33,387.64,142.33Z"/><path class="cls-2" d="M387.64,563.92c-112.68,0-204.36-91.68-204.36-204.37S275,155.19,387.64,155.19,592,246.86,592,359.55,500.32,563.92,387.64,563.92Zm0-405.73c-111,0-201.36,90.33-201.36,201.36s90.33,201.37,201.36,201.37S589,470.58,589,359.55,498.67,158.19,387.64,158.19Z"/><path class="cls-2" d="M348.57,514c-2,0-5.26,0-6.71.19-.29.1-.15-.92,0-.92,3-.34,4.29-.43,4.29-4.44V496.65c0-4-1.3-4.15-4.29-4.48-.15,0-.29-1,0-.87,1.45.19,4.68.19,6.71.19,1.44,0,4.63-.05,5.64-.19.29-.1.24.87.1.87-3.14.29-4.25.72-4.25,4.48v12.16c0,3.77,1.11,4.15,4.25,4.44.14,0,.19,1-.1.92C353.2,514,350,514,348.57,514Z"/><path class="cls-2" d="M363.57,506.74c0-3.57,2.75-6.66,7.38-8.59-3.08-2-5.69-4.15-5.69-7.77,0-5.07,4.1-8.59,9.31-8.59,4.34,0,7.92,3.09,7.92,7,0,3.37-2,5.64-6,7.76,3.43,2.13,6.66,4.54,6.66,8.79,0,5.21-4.2,9.31-10.23,9.31C367.91,514.7,363.57,511.42,363.57,506.74Zm3.72,0a6.16,6.16,0,0,0,6.22,6.46c4,0,6.32-2.51,6.32-5.74,0-4.15-3.71-6.22-7.33-8.39C369.07,500.76,367.29,503,367.29,506.74Zm1.44-18.48c0,3.52,3,5.5,6.33,7.48a7.7,7.7,0,0,0,4-6.66c0-3.43-2.27-5.84-5.36-5.84A4.73,4.73,0,0,0,368.73,488.26Z"/><path class="cls-2" d="M395.18,521.31c5.69-9.5,11.09-19.35,14.81-26.1H400.1c-4.59,0-5.36.77-5.55,3.71,0,.1-.87.1-.87-.05a47.7,47.7,0,0,1,.48-6.75c.15-.53.34-.77.92-.77,1.54,0,4.68.14,7.77.14,4.2,0,6.61-.05,9.65-.24.19,0,.77,1,.62,1.25-4.39,8-11.09,20.75-15.73,29.73C397.15,522.66,394.89,521.74,395.18,521.31Z"/><path class="cls-2" d="M426,494.14c-1.4,0-2.46,1.74-2.46,3.43,0,1.5.48,2.32,6.37,5.12,4.29,2,6.17,5,6.17,8.25,0,5.21-4.82,9.6-14,11.38-.29,0-.38-.86-.29-.86,5.12-1.31,10.43-4.35,10.43-9.27,0-2.7-1.16-4.49-5.41-6.42-3.52-1.59-5.35-3-5.35-5.69a15.76,15.76,0,0,1,1.06-4.63c1.49-3.57,2.89-5,4.73-5,1.54,0,3.66,1.3,6.17,1.3,1.16,0,1.59-.68,2-2.61,0-.09.87-.14.87.1-.1,4.73-1.45,6.32-3.67,6.32C430.06,495.59,428.23,494.14,426,494.14Z"/><path class="cls-1" d="M163.18,489l-3.4,12.69-12.68-3.4,3.39-12.69Z"/><path class="cls-1" d="M152.18,441.56a87,87,0,0,0,3.18,8.85c.31.71-1.29.74-1.36.52-2.06-4.63-3.16-5.08-10.07-2.85l-16.43,5.3c-6.91,2.23-7.55,3.24-6.58,8.23.07.21-1.34,1.07-1.43.3a54.76,54.76,0,0,0-2.22-8.12c-.42-1.31-1.79-4.8-2.37-6.62-2-6.18-.92-12.79,4.53-14.55,3.06-1,7.34.85,9.91,4.59-1.65-6.37.6-11.59,5.33-13.12,6.1-2,12.83,2.21,15.5,10.5C150.76,436.4,151.74,440.18,152.18,441.56Zm-21,2.75c-2.13-6.62-4.93-7.56-8.85-6.3-5.38,1.74-6.43,5.21-4.93,9.86.23.73.4.76.66,1.56a36.35,36.35,0,0,0,7.49-1.94l16.65-5.37c5.89-1.9,7.17-2.15,5.86-6.23-2-6-5.07-8-10.16-6.35-5.31,1.71-8.33,6.78-5,14.23C133,444,131.3,444.53,131.23,444.31Z"/><path class="cls-1" d="M125.56,401.7a17.86,17.86,0,0,1,.25,2.2l6.35-.94c6.8-1,8.08-1.74,7.77-6.95,0-.23,1.53-.61,1.45-.14,0,1.77.53,5.64.89,8.06a90,90,0,0,0,1.7,9.4c.22.43-1.4.44-1.43.21-1.26-4.83-2.3-5.6-9.48-4.53L116,411.54c-6.58,1-7.83,2.4-7.44,5a12.6,12.6,0,0,0,.54,2.08c.2.28-1.18.87-1.33.43-1.11-2.3-2.41-9-3.34-15.18-1.51-10.21.93-16.13,7-17,3.78-.56,7.89,1.61,10.44,5.79,7.26-4.17,16.62-12.9,15.65-19.48,0-.22,1.36-.66,1.43-.21,1.85,12.39-5.88,20.73-14.42,24.55A30.18,30.18,0,0,1,125.56,401.7Zm-18.41,4.51c1.1.15,3.32,0,7.4-.63l9.07-1.35c-.1-.68-.1-1.15-.24-2.13-1.11-7.48-4.42-10-9.56-9.24-6.35.95-8.08,4.91-7.1,11.49A15.16,15.16,0,0,0,107.15,406.21Z"/><path class="cls-1" d="M138.44,360.26a89.74,89.74,0,0,0,.36,9.55c.16.61-1.45.24-1.45.09-.57-5-1.56-5.8-8.75-5.76l-17.26.1c-7.26,0-8.25.81-8.76,5.85,0,.15-1.52.47-1.45-.14a69.84,69.84,0,0,0,.33-9.48c0-2.29-.19-6.26-.43-8-.08-.61,1.45-.31,1.45-.16.42,5.27,2,5.79,8.82,5.76l17.27-.1c6.8,0,8.25-.58,8.68-5.85,0-.16,1.52-.47,1.45.14C138.48,354,138.43,358,138.44,360.26Z"/><path class="cls-1" d="M140.16,307c2,5.37,2.92,10,2.13,15.73-1.83,13.09-11.73,19.89-21.57,18.51-10.36-1.44-19-11.83-17.2-24.85.75-5.37,4.14-10.91,5.19-11.77.44-.4,5.36-.25,8.87.54.38.06,0,1.47-.12,1.45-4.51-.32-10.71,3.75-11.8,11.55-1.18,8.47,3.62,15,13.83,16.43,12.34,1.72,19.33-4.71,20.47-12.88.82-5.9-.49-7-1.28-7.43a14.91,14.91,0,0,0-3.58-.89c-7.26-1-7.6-.82-8.9,5.17,0,.22-1.57.24-1.43-.2.56-2.39,1.3-6.61,1.77-9.94a75.56,75.56,0,0,0,.74-7.53c-.09-.48,1.41-.12,1.37.11-.26,5.21.42,5.3,7.61,6.31C137.92,307.51,139.22,307.61,140.16,307Z"/><path class="cls-1" d="M154.24,272.61c-.05.39-1.45-.26-1.37-.48.95-4.36.22-5.5-6.49-7.84L139,261.72l-6.74,19.34,7.36,2.56c6.35,2.22,8.06,2.17,9.93-2,.08-.21,1.64.17,1.35.55a75.86,75.86,0,0,0-2.8,7.12,99.08,99.08,0,0,0-3,9.55c0,.48-1.45-.26-1.37-.48,1.26-5.71.72-6.46-6.14-8.85l-16.3-5.69c-6.86-2.39-7.9-2.18-10.39,3.1-.07.21-1.64-.17-1.34-.55a78.07,78.07,0,0,0,3.63-9.26,76,76,0,0,0,2.15-7.34c0-.48,1.47.19,1.4.41-1.15,4.45.16,5.56,6.58,7.8l6.86,2.39L136.93,261l-6.86-2.39c-6.78-2.36-8.14-1.94-10,2.09-.07.22-1.64-.17-1.44-.5A62,62,0,0,0,122,251.9c.83-2.38,2.15-6.62,2.51-8.35,0-.49,1.52,0,1.4.4-1.53,5.78-.26,6.55,6.23,8.81l16.31,5.68c6.49,2.27,7.82,2.41,10.28-3,.13-.37,1.64.16,1.35.54-.8,1.59-2.33,5.75-3.16,8.13A80.35,80.35,0,0,0,154.24,272.61Z"/><path class="cls-1" d="M174.18,231.22c-.09.48-1.37-.53-1.25-.73,1-2.39,2.18-3.59.86-4.36-1.52-.88-4.2-1.29-7.21-1.89l-4.19-.85-6.22,10.7,2.61,3.56c2.18,2.94,3.67,4.78,5,5.55,1.13.65,1.85-.6,3.28-2.6.19-.33,1.58.48,1.22.8a55.2,55.2,0,0,0-3.57,5.52,38.48,38.48,0,0,0-2.92,5.64c-.17.43-1.37-.53-1.26-.73,1.66-3.46.87-6.21-3.21-12L139.71,215c-.26-.32.06-1,.53-.92l29.51,4.43c5.87.85,8.85,1.35,12-3.18.12-.19,1.58.48,1.22.8a76.16,76.16,0,0,0-4.11,6.45C177.22,225.39,175.15,229,174.18,231.22Zm-19.54.93L160,223l-13.47-2.36Z"/><path class="cls-1" d="M207.17,187.71c-.19.45-1.29-.73-1.13-.9,2.6-3.62,2.31-4.9-3.11-9.62l-15.21-13.13,13.85,29.72c.19.36-.43.94-.76.85l-31.53-8.93,14.35,13.18c4.57,4.17,6.42,5.2,10.22,1.62.15-.17,1.45.79,1,1a49.54,49.54,0,0,0-4.39,4.47,66.22,66.22,0,0,0-5.21,6.31c-.19.45-1.24-.79-1.08-1,3-4.12,2.26-5.76-2.55-10.24l-14.76-13.65c-1.94-1.83-5.78-1.77-9,1.18-.15.17-1.45-.67-1-.91a109.73,109.73,0,0,0,8.52-9l30.57,8.39-8.48-17.47c-1.85-3.79-3.36-7.49-5.14-10.09a80.52,80.52,0,0,0,8.05-9.51c.19-.44,1.23.69,1.13.8-3.61,4.87-2.84,6.07,2.4,10.52L207,172.63c5.23,4.45,6.62,5,10.87.88.15-.17,1.45.78,1,1-1.39,1.22-4.34,4.42-6,6.24A79.59,79.59,0,0,0,207.17,187.71Z"/><path class="cls-1" d="M246.48,131.57l4.74,7.4c4.36,6.82,5,6.62,9.59,4.21.19-.13,1.18,1.14.71,1.26-1.66.79-4.92,2.79-7,4.11a89,89,0,0,0-7.88,5.4c-.31.38-1-1.1-.79-1.22,3.86-3.19,4.71-3.28.14-10.43l-4.24-6.63-8.6-3.93c-9.14-4.22-11-4.51-15.26-2.3-.19.12-1.25-1.11-.78-1.22a77.82,77.82,0,0,0,7.57-4.48c2.06-1.32,5.17-3.4,6.52-4.54.31-.38,1,1.06.85,1.18-4,3-2.4,3.62,6.47,7.56l5.59,2.5.41-7.88c.49-9.57,0-9.51-4.23-7.45-.19.12-1.32-1.06-.72-1.26a65,65,0,0,0,7-4.15,41.79,41.79,0,0,0,4.67-3.35c.3-.37,1,1.06.84,1.18-4,3-4.56,4.64-5.07,13.77Z"/><path class="cls-1" d="M267.77,119.56c-3.94-9.7.94-22.24,12.55-26.95,10.9-4.43,22.6.63,26.37,9.9,3.91,9.63-.9,22.14-12.58,26.88C283.28,133.79,271.53,128.84,267.77,119.56Zm5-4.68c4.72,11.61,14.6,14.61,21.67,11.73,7.58-3.08,11.2-10,7.35-19.48-4.72-11.6-14.72-14.71-21.8-11.84C272.43,98.37,268.91,105.33,272.79,114.88Z"/><path class="cls-1" d="M353.91,98.32c1.49,7.65-3,15.22-13.08,17.18-8.7,1.69-17.19-2.34-18.94-11.34L319.33,91c-1.39-7.12-2.4-7.94-7.4-7.59-.22,0-.66-1.43-.18-1.37a71.18,71.18,0,0,0,9.35-1.5c2.4-.47,6.14-1.27,7.9-1.85.42-.24.71,1.26.33,1.34-5,1.44-5.17,3-3.85,9.77l2.31,11.93c1.71,8.77,8.17,11.57,13.94,10.44,7.58-1.47,10.77-6.29,9.26-14L348.4,84.76c-1.26-6.45-2.3-7.41-7.29-7.06-.39,0-.67-1.43-.19-1.37a44.47,44.47,0,0,0,7.41-1.13,57.63,57.63,0,0,0,6.47-1.57c.58-.19.56,1.29.41,1.32-5.09,1.46-5.22,3.2-4,9.27Z"/><path class="cls-1" d="M407.21,100.17c0,2.82,0,8,.31,10.47,0,.23-.92.52-1.38.06L377.86,81.53l-.14,18.41c0,6.12.48,8.26,5.74,8.76.16,0,.3,1.6-.16,1.45a48.15,48.15,0,0,0-6.19-.36,66.91,66.91,0,0,0-8.25.25c-.38.07-.22-1.46,0-1.45,5.05-.5,5.82-2.18,5.87-8.67l.15-19.63c0-2.6-4.77-6.15-7.36-6.48-.23,0-.37-1.61.09-1.45a80.73,80.73,0,0,0,10.08.54l26.45,27.78.14-17.8c0-6.57-.7-8.26-5.67-8.83-.38-.08-.36-1.61.09-1.45a44,44,0,0,0,7.56.43A54.22,54.22,0,0,0,413,72.7c.76-.07.37,1.46.22,1.46-5.35.34-5.83,2.63-5.87,8.74Z"/><path class="cls-1" d="M454.48,115c-5.46,1.64-10.19,2.34-15.82,1.22-13-2.56-19.19-12.83-17.26-22.57,2-10.27,12.9-18.32,25.79-15.77,5.32,1.05,10.66,4.76,11.46,5.85.38.46,0,5.37-1,8.83-.07.37-1.46-.06-1.44-.21.58-4.48-3.13-10.9-10.85-12.43-8.4-1.66-15.19,2.76-17.2,12.87-2.41,12.22,3.61,19.57,11.7,21.17,5.85,1.16,7-.09,7.49-.85a14.57,14.57,0,0,0,1.09-3.53c1.43-7.19,1.26-7.54-4.65-9.17-.22,0-.15-1.59.28-1.43,2.36.7,6.53,1.68,9.82,2.34,2.33.46,5.71,1,7.48,1.17.48-.07,0,1.4-.19,1.36-5.18-.56-5.32.11-6.73,7.23C454.08,112.7,453.9,114,454.48,115Z"/><path class="cls-1" d="M519.34,131.17c-3.45,7-11.64,10.27-20.82,5.73-7.94-3.93-12.25-12.29-8.18-20.51l6-12c3.22-6.5,2.91-7.77-1.27-10.52-.2-.1.34-1.54.68-1.2a68.9,68.9,0,0,0,8.36,4.48c2.19,1.09,5.64,2.71,7.39,3.32.48.07-.2,1.44-.54,1.27-4.86-1.9-5.95-.73-9,5.43L496.53,118c-4,8-.52,14.15,4.75,16.76,6.92,3.42,12.38,1.52,15.87-5.54l6-12.18c2.91-5.89,2.67-7.29-1.51-10-.31-.24.33-1.54.68-1.2a44.08,44.08,0,0,0,6.57,3.59,59.13,59.13,0,0,0,6.1,2.68c.58.2-.34,1.36-.48,1.3-4.93-1.93-6.08-.63-8.83,4.92Z"/><path class="cls-1" d="M560.61,165c-1.73,2.23-4.86,6.38-6.12,8.5-.14.18-1-.14-1.13-.78l-4.76-40.35-11.29,14.54c-3.75,4.83-4.63,6.85-.75,10.45.12.09-.74,1.45-1,1a50.49,50.49,0,0,0-4.7-4,67.58,67.58,0,0,0-6.71-4.82c-.35-.17.71-1.28.89-1.14,4.31,2.67,6,1.81,9.93-3.32l12-15.51c1.59-2.06-.06-7.78-1.92-9.62-.18-.14.68-1.5.95-1.1a79.84,79.84,0,0,0,7.69,6.55l4.15,38.14,10.91-14.07c4-5.19,4.46-7,.86-10.45-.25-.3.69-1.5,1-1.1a43.32,43.32,0,0,0,5.75,4.94,54.76,54.76,0,0,0,5.54,3.82c.65.41-.59,1.38-.71,1.29-4.46-3-6.22-1.45-10,3.38Z"/><path class="cls-1" d="M570.81,189.54a89.74,89.74,0,0,0-6.74-6.77c-.53-.34.9-1.16,1-1,3.84,3.31,5.09,3.19,10.33-1.71L588,168.22c5.31-4.95,5.51-6.19,2.46-10.24-.11-.11.8-1.38,1.16-.88a70,70,0,0,0,6.19,7.18c1.57,1.68,4.39,4.47,5.76,5.6.47.39-.85,1.22-1,1.1-3.88-3.59-5.42-2.88-10.39,1.76l-12.61,11.8c-5,4.64-5.66,6-2.4,10.19.11.11-.8,1.38-1.16.88C575,194.17,572.38,191.21,570.81,189.54Z"/><path class="cls-1" d="M593.23,218.59c-.23.07-.88-.59-.64-1l15.8-25.71c3.57-5.84,4.39-8.55,2.08-12.53-.13-.19,1.06-1.29,1.19-.83a75.13,75.13,0,0,0,4.06,6.49,76.16,76.16,0,0,0,5.94,7.87c.39.29-.87,1.16-1.15.89-1.69-1.89-2.64-3-3.9-2.12-.88.61-2.33,2-4.42,5.41l-10.73,17.61,20.2-4c4.56-.94,5.57-1.36,6.7-2.15s.74-2-.51-4.21c-.13-.18,1-1.29,1.19-.82a54.31,54.31,0,0,0,3.44,5.61,29.68,29.68,0,0,0,3.94,5c.38.29-1,1.08-1.15.89-2.37-2.72-5-3.41-12.21-2Z"/><path class="cls-1" d="M618.24,262.92c-.93-1.93-2.21-5.29-4.06-9.15-2.51-5.24-5.52-11.5-7.65-15.23-.2-.41,1.21-.83,1.31-.63,3.13,4.94,4,5.09,10.59,2L634,232.38c6.54-3.14,7.14-4,5.17-9.52-.1-.21,1.25-1.11,1.38-.66,1.51,4,4.35,10.12,6.87,15.35,1.78,3.72,3.64,7.23,5.44,10.27a14,14,0,0,0-3.75,1.38c-.55.26-2.1.92-2.41,1.15-.14.07-.83-1.21-.7-1.27,2.08-1.51,2.78-2.86-.43-9.54l-2.15-4.48a47.46,47.46,0,0,0-6.47,2.77l-6.33,3,1.65,3.45c2.78,5.78,3.12,6.13,5.59,5.62.13-.07.83,1.21.45,1.31a25.75,25.75,0,0,0-4.19,1.67l-3,1.42c0,.18-.77-1.24-.7-1.27,2.45-1.77,2.46-2.29-.19-7.8l-1.65-3.44-6.82,3.28c-6.61,3.17-7.06,3.81-5.94,6.16l1.29,2.68c3.81,7.92,5,7.6,8.75,6.74.07,0,.73,1.34.52,1.44-1.41.42-5,1.49-6.25,1.64S618.67,263.82,618.24,262.92Z"/><path class="cls-1" d="M642.11,281.27a17.89,17.89,0,0,1-.55-2.15l-6.15,1.82c-6.6,1.95-7.77,2.86-6.73,8,.06.22-1.43.82-1.42.34-.27-1.75-1.31-5.51-2-7.86a89.24,89.24,0,0,0-3-9.07c-.28-.39,1.33-.63,1.39-.41,1.92,4.61,3.06,5.23,10,3.17l16.56-4.89c6.37-1.89,7.42-3.47,6.66-6a12.17,12.17,0,0,0-.82-2c-.24-.25,1-1,1.25-.61,1.43,2.12,3.65,8.56,5.42,14.57,2.93,9.89,1.34,16.09-4.52,17.83-3.67,1.08-8-.5-11.15-4.28-6.6,5.14-14.66,15.09-12.77,21.47.06.22-1.26.85-1.39.41-3.56-12,2.93-21.34,10.86-26.32A30.77,30.77,0,0,1,642.11,281.27Zm17.6-7c-1.11,0-3.28.49-7.23,1.66l-8.8,2.61c.2.65.26,1.12.54,2.07,2.14,7.25,5.77,9.29,10.75,7.81,6.16-1.82,7.32-6,5.43-12.36A15,15,0,0,0,659.71,274.23Z"/><path class="cls-1" d="M636.73,313.52c.18-.33,4.45-.7,8.49-1,.38-.05.42,1.33.27,1.35-5.69,1.26-9.81,4.92-9,10.82.57,4.09,3.38,6.55,7,6,9.45-1.31,7.14-18,17.51-19.4,5.22-.73,11.24,3.22,12.21,10.18a13.77,13.77,0,0,1-1.08,7.71c-.24.5-3.26,1.53-7.12,2.07-.23,0-.44-1.48-.21-1.51,4.06-1.26,6.56-4.39,6-8.48-.49-3.55-2.6-6-6.08-5.47-9.08,1.26-6.58,17.57-17.48,19.09-6.21.86-12.25-3.23-13.25-10.42A15.69,15.69,0,0,1,636.73,313.52Z"/><path class="cls-1" d="M637.57,355.8a89.27,89.27,0,0,0-.47-9.54c-.16-.61,1.45-.26,1.45-.1.62,5,1.63,5.78,8.81,5.65l17.27-.29c7.25-.12,8.23-.9,8.68-5.95,0-.15,1.52-.49,1.46.13a70.16,70.16,0,0,0-.22,9.48c0,2.29.25,6.26.51,8,.09.61-1.44.33-1.45.18-.47-5.27-2.08-5.77-8.88-5.66l-17.26.29c-6.8.12-8.25.68-8.61,6,0,.15-1.52.48-1.46-.13C637.6,362.07,637.61,358.09,637.57,355.8Z"/><path class="cls-1" d="M662.93,412.81c-.22,0,0-1.39.17-1.37,2.57-.22,4.56-2,5.31-8l.63-5-24-3c-6.75-.83-8.25-.56-9.36,4.69,0,.23-1.56.2-1.41-.4.44-1.72,1-5.58,1.3-8a89.09,89.09,0,0,0,.85-9.37c-.07-.62,1.48-.12,1.45.11-.09,5.07.8,5.95,7.93,6.83l24,3,.66-5.31c.72-5.84-.66-8.32-3.23-9.41,0-.31.11-1.45.33-1.35a42.84,42.84,0,0,0,5.64,1.09,11.53,11.53,0,0,0,3,.06c.24,0,.14,1.33-.09,1.38-1.88.23-2,.37-3,8.56l-2,16.45c-1,8.11-1.06,8.49.78,9.18.22.11,0,1.54-.32,1.35a24.41,24.41,0,0,0-5-1.09C665.6,413.06,663.7,412.83,662.93,412.81Z"/><path class="cls-1" d="M643.65,441l-8.41-2.56c-7.75-2.35-8.07-1.81-10,3-.07.22-1.65-.1-1.37-.49.75-1.69,1.94-5.32,2.65-7.66a90.2,90.2,0,0,0,2.49-9.23c0-.48,1.46.21,1.39.42-.86,4.93-1.45,5.55,6.66,8l7.53,2.3,9.1-2.59c9.69-2.72,11.26-3.68,13.1-8.15.07-.22,1.67,0,1.39.43a75.33,75.33,0,0,0-2.85,8.31c-.72,2.34-1.73,5.94-2,7.69,0,.49-1.47-.13-1.41-.35,1.08-4.86-.52-4.31-9.83-1.55l-5.87,1.72,4.8,6.26c5.83,7.6,6.19,7.23,8,2.93.07-.22,1.7-.05,1.37.49a65.42,65.42,0,0,0-2.67,7.74,41,41,0,0,0-1.38,5.57c0,.48-1.48-.13-1.41-.35,1.08-4.86.46-6.49-5.07-13.77Z"/><path class="cls-1" d="M612.36,489.9l12.69-3.35,3.36,12.69-12.7,3.35Z"/><path class="cls-1" d="M186.59,542.61c-.16-.17.86-1.1,1-.93l.46.51c3.56,3.9,8,4.27,12.54.15,4.3-3.91,4.27-8,.72-11.92-.36-.39-1.35-1.25-1.92-1.76-1.5.85-2.74,2-5.9,4.86l-12.77,11.63c-5.08,4.63-5.79,5.9-2.63,10,.16.17-.92,1.37-1.12.93-1-1.46-3.58-4.39-5.23-6.2a89.17,89.17,0,0,0-6.6-6.79c-.53-.35.91-1.15,1.07-1,3.79,3.37,5,3.31,10.35-1.57L189.33,529c5.31-4.84,5.53-6.07,2.58-10.21-.15-.17.72-1.48,1-.93a69.31,69.31,0,0,0,5.49,6.47c.92,1,3.77,3.8,5.16,5.33,5.19,5.7,6.49,12.68,2,16.75-5,4.53-12.49,3.42-18.51-3.19C186.89,543,186.69,542.72,186.59,542.61Z"/><path class="cls-1" d="M217.32,571.2a17.87,17.87,0,0,1-1.69-1.43l-4,5c-4.27,5.39-4.7,6.8-.91,10.39.18.14-.69,1.49-1,1.09-1.24-1.27-4.25-3.75-6.16-5.26a92,92,0,0,0-7.68-5.69c-.46-.16.72-1.28.9-1.14,4.22,2.66,5.51,2.51,10-3.18l10.71-13.55c4.12-5.21,4.06-7.11,2-8.77a13,13,0,0,0-1.82-1.14c-.34-.07.26-1.45.67-1.22,2.39.91,7.91,4.89,12.83,8.78,8.09,6.39,10.37,12.38,6.58,17.18-2.37,3-6.85,4.22-11.57,2.93-2.44,8-3.28,20.78,1.93,24.9.18.14-.54,1.42-.9,1.14-9.83-7.77-9.9-19.13-6.29-27.77A30.16,30.16,0,0,1,217.32,571.2Zm10.32-15.89c-.9.65-2.4,2.29-4.95,5.53L217,568c.54.42.85.77,1.63,1.38,5.94,4.69,10.07,4.27,13.3.19,4-5,2.52-9.11-2.69-13.23A15.83,15.83,0,0,0,227.64,555.31Z"/><path class="cls-1" d="M245.64,590.23c4.79-9.3,17.49-13.77,28.63-8,10.46,5.39,14.25,17.56,9.67,26.46-4.76,9.24-17.38,13.74-28.59,8C245,611.27,241.06,599.13,245.64,590.23Zm6.83.76c-5.73,11.15-1.57,20.59,5.22,24.09,7.27,3.74,14.87,2,19.56-7.12,5.73-11.14,1.57-20.76-5.22-24.25C264.76,580,257.19,581.82,252.47,591Z"/><path class="cls-1" d="M308,637.09c-.14.2-1.06.09-1.15-.42l-3.81-29.94c-.88-6.78-1.94-9.4-6.23-11.06-.22-.06,0-1.66.41-1.39a75.63,75.63,0,0,0,7.22,2.52,77.51,77.51,0,0,0,9.57,2.4c.48,0,.05,1.45-.34,1.41-2.5-.41-3.94-.67-4.37.79-.3,1-.57,3-.06,7L312,628.84l13.22-15.78c3-3.59,3.49-4.56,3.87-5.88s-.68-2-3-3c-.22-.06,0-1.66.41-1.39a52.88,52.88,0,0,0,6.19,2.22,30.28,30.28,0,0,0,6.2,1.41c.48,0-.12,1.48-.34,1.42-3.55-.65-6,.46-10.77,6.07Z"/><path class="cls-1" d="M341.2,626.54c1-10.42,11.1-19.29,23.58-18.11,11.71,1.11,19.76,11,18.81,21-1,10.35-11,19.22-23.57,18C348.38,646.33,340.26,636.51,341.2,626.54Zm6.61-1.83c-1.17,12.48,6.2,19.69,13.81,20.41,8.14.77,14.55-3.69,15.51-13.88,1.18-12.48-6.26-19.86-13.87-20.57C355.12,609.9,348.78,614.44,347.81,624.71Z"/><path class="cls-1" d="M389.55,654.92c4.89-.1,6.07-2.26,6-4.17,0-1.3-.88-2-2.73-2.93-1.47-.66-2.17-1.25-2.19-2.55a2.62,2.62,0,0,1,2.77-2.58c2.45-.05,5.09,2,5.16,5.7.09,4.43-3.66,7.87-8.93,8C389.2,656.38,389.4,654.92,389.55,654.92Z"/><path class="cls-1" d="M469.69,622.61c1.86,7.57-2.3,15.35-12.24,17.78-8.61,2.11-17.28-1.51-19.46-10.41l-3.2-13.07c-1.72-7-2.77-7.81-7.74-7.22-.23,0-.74-1.4-.26-1.36a72.08,72.08,0,0,0,9.28-2c2.37-.58,6.07-1.57,7.79-2.22.41-.26.78,1.22.4,1.31-4.93,1.68-5,3.28-3.38,10l2.88,11.8c2.13,8.68,8.71,11.16,14.43,9.76,7.49-1.83,10.45-6.8,8.58-14.45l-3.24-13.21c-1.56-6.38-2.65-7.29-7.61-6.71-.39,0-.74-1.39-.26-1.35a43.82,43.82,0,0,0,7.35-1.48,58.56,58.56,0,0,0,6.38-1.88c.58-.22.63,1.26.48,1.3-5,1.7-5.06,3.44-3.59,9.45Z"/><path class="cls-1" d="M513.59,586.1c.09.21-1.19.72-1.25.58-1.55-2.06-4.09-2.82-9.63-.25l-4.58,2.12,10.19,22c2.87,6.17,3.89,7.3,8.94,5.46.2-.1,1,1.23.4,1.41-1.69.54-5.26,2.11-7.48,3.13a87.58,87.58,0,0,0-8.39,4.24c-.49.39-.89-1.19-.68-1.29,4.35-2.6,4.62-3.83,1.6-10.34l-10.19-22-4.85,2.25c-5.34,2.47-6.71,5-6.28,7.71-.25.2-1.28.68-1.31.44A43.7,43.7,0,0,0,478,596.2a12,12,0,0,0-1.53-2.57c-.16-.18,1-.83,1.22-.65,1.19,1.47,1.36,1.48,8.84-2l15-7c7.42-3.44,7.76-3.61,7.37-5.53,0-.24,1.33-.78,1.32-.44a23.26,23.26,0,0,0,1.74,4.84C512.39,583.71,513.19,585.44,513.59,586.1Z"/><path class="cls-1" d="M553.27,596c-.29.39-1-1.07-.81-1.19,2-1.72,3.51-2.31,2.65-3.57-1-1.45-3.23-3-5.69-4.82L546,583.8l-10.23,7,.83,4.34c.69,3.6,1.25,5.9,2.11,7.16.73,1.08,1.93.26,4.08-.93.31-.22,1.22,1.11.75,1.24A54.55,54.55,0,0,0,538,606a38.43,38.43,0,0,0-5.06,3.83c-.34.32-1-1.07-.82-1.2,3-2.41,3.46-5.23,2.24-12.17l-5.14-30.06c-.09-.4.5-.89.88-.6l24.72,16.72c4.93,3.29,7.4,5,12.2,2.31.19-.13,1.22,1.11.76,1.24-1.64.84-4.4,2.63-6.49,4A98.37,98.37,0,0,0,553.27,596Zm-18-7.59,8.77-6-11.14-7.93Z"/><path class="cls-1" d="M597,558.35c-.22.32-1.2-.86-1-1,2.73-3.53,2.56-4.88-2.5-9.87L587.93,542l-14.37,14.59,5.55,5.46c4.79,4.72,6.36,5.41,9.85,2.42.16-.17,1.41.85,1,1.07-1.45,1.15-3.86,3.49-5.58,5.23-2.31,2.34-5.31,5.39-6.81,7.34-.21.44-1.19-.85-1-1,3.58-4.62,3.42-5.53-1.75-10.63l-12.3-12.12c-5.17-5.09-6.2-5.35-10.71-1.64-.16.16-1.41-.86-1-1.08a81.27,81.27,0,0,0,7.24-6.8,74.35,74.35,0,0,0,5.09-5.72c.21-.43,1.25.81,1.09,1-3,3.53-2.23,5.09,2.61,9.87L572,555l14.37-14.58-5.17-5.1c-5.12-5-6.52-5.24-10-2.41-.16.16-1.41-.85-1.09-1.07a61.18,61.18,0,0,0,6.6-6.05c1.77-1.79,4.77-5.06,5.84-6.47.22-.43,1.36.69,1.09,1-3.85,4.57-3,5.81,1.86,10.63l12.3,12.12c4.9,4.83,6,5.52,10.6,1.65.27-.27,1.42.86,1,1.07-1.39,1.1-4.56,4.2-6.33,6A80,80,0,0,0,597,558.35Z"/><path class="cls-2" d="M517.23,458.21H261.63a1.5,1.5,0,0,1,0-3h255.6a1.5,1.5,0,0,1,0,3Z"/><path class="cls-2" d="M517.23,277.25H261.63a1.5,1.5,0,0,1,0-3h255.6a1.5,1.5,0,0,1,0,3Z"/><path class="cls-2" d="M299.3,227.58h-3.57a28.77,28.77,0,0,0-.2,4.43v4.59h2.13c3.95,0,4.34-.53,4.77-2.22.05-.1,1-.1.92.1a16.4,16.4,0,0,0-.24,3.28,17.26,17.26,0,0,0,.05,2.31c.09.29-.87.39-.92.1-.29-1.45-.68-2.12-4.58-2.12h-2.13v5.06c0,4.59.34,5.21,3.77,5.5.24,0,.33,1-.05.92-1.11-.14-3.77-.19-5.31-.19a50.89,50.89,0,0,0-5.64.19c-.29.1-.15-.92,0-.92,2.79-.33,3.32-1,3.32-5.5v-10.9c0-4.59-.38-5.17-4.05-5.55-.1,0-.24-1,.05-1,2.7.25,7.09.29,10.76.29,2.61,0,5-.14,6.32-.14.63,0,.92.1,1,.77s.2,3,.34,4c0,.14-.82.19-.87,0C304.7,228.3,304.8,227.58,299.3,227.58Z"/><path class="cls-2" d="M310.44,238.05c0-6.61,5.84-12.79,13.75-12.79,7.43,0,13.08,5.74,13.08,12.06,0,6.56-5.79,12.74-13.75,12.74C316.14,250.06,310.44,244.37,310.44,238.05Zm4.06-1.55c0,7.92,5.06,12,9.89,12,5.16,0,8.92-3.19,8.92-9.65,0-7.92-5.11-12.11-9.94-12.11C318.21,226.76,314.5,230,314.5,236.5Z"/><path class="cls-2" d="M365.16,241c0,4.92-3.71,9.07-10.18,9.07-5.59,0-10.37-3.52-10.37-9.31v-8.49c0-4.59-.53-5.22-3.67-5.6-.14,0-.24-1,.05-.87a45.42,45.42,0,0,0,6,.19c1.55,0,4,0,5.12-.19.29-.1.29.87.05.87-3.28.29-3.57,1.25-3.57,5.6v7.67c0,5.64,3.66,8.15,7.38,8.15,4.87,0,7.43-2.6,7.43-7.57v-8.59c0-4.15-.53-4.88-3.67-5.26-.24,0-.24-1,.05-.87a28,28,0,0,0,4.73.19,35,35,0,0,0,4.2-.19c.38,0,.19.87.09.87-3.33.29-3.62,1.35-3.62,5.26Z"/><path class="cls-2" d="M397.73,243.11c0,1.79,0,5.07.25,6.61,0,.15-.58.34-.87.05l-18-18.29v11.63c0,3.86.34,5.21,3.67,5.5.09,0,.19,1-.1.92a32,32,0,0,0-3.91-.19,42.69,42.69,0,0,0-5.21.19c-.24.05-.14-.92,0-.92,3.18-.33,3.67-1.4,3.67-5.5v-12.4c0-1.64-3-3.86-4.68-4.05-.15,0-.24-1,.05-.92A50.58,50.58,0,0,0,379,226l16.84,17.42V232.21c0-4.15-.48-5.21-3.61-5.55-.25,0-.25-1,0-.92A27.69,27.69,0,0,0,397,226a33.84,33.84,0,0,0,4.25-.24c.48-.05.24.92.14.92-3.38.24-3.67,1.69-3.67,5.55Z"/><path class="cls-2" d="M412.6,249.34c-2.13,0-5,0-6.52.19-.48.05-.19-.92-.05-.92,3.19-.33,3.67-1,3.67-5.5v-10.9c0-4.59-.48-5.21-3.67-5.55-.14,0-.38-1,.1-.92a57.87,57.87,0,0,0,6.8.24c.87,0,4.25-.14,5.55-.14,8.69,0,13.42,5,13.42,11.48,0,6.61-5.75,12.16-13.9,12.16C416.75,249.48,413.46,249.34,412.6,249.34Zm1.3-21.81a20.39,20.39,0,0,0-.29,4.68v12.21c0,2.65.24,3.52,5.4,3.52a8.71,8.71,0,0,0,8.93-9.17c0-7.58-3.86-11.44-10.57-11.44A16.65,16.65,0,0,0,413.9,227.53Z"/><path class="cls-2" d="M452.35,249.53c-1.35,0-3.62-.19-6.32-.19-3.67,0-8.06,0-10.76.19-.29,0-.14-.92,0-.92,3.67-.43,4-.91,4-5.5v-10.9c0-4.59-.34-5.17-4-5.55-.14,0-.29-1,0-1,2.7.25,7,.29,10.62.29,2.6,0,5.11-.09,7.33-.29a9.13,9.13,0,0,0-.24,2.51c0,.39-.05,1.45,0,1.69s-.92.15-.92.05c-.29-1.59-.87-2.36-5.55-2.36h-3.13a28.77,28.77,0,0,0-.2,4.43v4.44h2.42c4,0,4.34-.09,4.73-1.64,0-.09.91-.14.86.1a17,17,0,0,0-.19,2.85v2.07a2.63,2.63,0,0,1-.91,0c-.34-1.88-.63-2-4.49-2h-2.42v4.78c0,4.63.25,5.07,1.89,5.07H447c5.55,0,5.69-.78,6.22-3.14,0-.05,1-.05,1,.1-.15.91-.53,3.28-.77,4S453,249.53,452.35,249.53Z"/><path class="cls-2" d="M465.72,249.34c-2.13,0-5,0-6.52.19-.48.05-.19-.92,0-.92,3.18-.33,3.66-1,3.66-5.5v-10.9c0-4.59-.48-5.21-3.66-5.55-.15,0-.39-1,.09-.92a58.05,58.05,0,0,0,6.81.24c.86,0,4.24-.14,5.54-.14,8.69,0,13.42,5,13.42,11.48,0,6.61-5.74,12.16-13.9,12.16C469.87,249.48,466.59,249.34,465.72,249.34Zm1.3-21.81a20.39,20.39,0,0,0-.29,4.68v12.21c0,2.65.24,3.52,5.41,3.52a8.71,8.71,0,0,0,8.92-9.17c0-7.58-3.86-11.44-10.56-11.44A16.71,16.71,0,0,0,467,227.53Z"/><path class="cls-2" d="M552.46,327c0-2.59.16-4.23,1.89-5.11a23.71,23.71,0,0,1,6.37-2.09h.06c.13,0,.14-.4-.06-.4h-48c-.19,0-.19.36-.06.4h0a23.66,23.66,0,0,1,6.38,2.09c1.73.88,1.88,2.53,1.88,5.12v47.92c0,10.92-6.26,19.32-18.68,19.32s-18.69-8.4-18.69-19.32V327c0-2.58.15-4.25,1.88-5.13a23.66,23.66,0,0,1,6.38-2.09H492c.13,0,.13-.4-.06-.4H446.63c-.19,0-.19.37-.06.4l.06,0a7.87,7.87,0,0,1,3.7,1.85c1.5,1.27,1.88,2.77,1.88,5.35v47.1c0,22.71,12.43,42,50.13,42s50.12-19.27,50.12-42Z"/><path class="cls-2" d="M257.77,337.29h14.57c9.5,0,15.08,1.47,15.08,10.1C287.42,353,284,358,272.73,358h-15Zm0,35.4h12.64c8.42,0,18.72,0,18.72,11.65,0,8.64-7.37,11.66-17.3,11.66H257.77ZM227.51,327v79.74c0,2.59-.15,4.26-1.89,5.14a23.71,23.71,0,0,1-6.37,2.09h-.06c-.13,0-.14.4.06.4h64.49c27.2,0,38.64-10.79,38.64-27.63,0-12.45-5.8-20.16-17.27-23-.07,0-.08-.17,0-.2,7.31-2.28,14-7.64,14-20.6,0-17.58-11.87-23.53-37.77-23.53H219.27c-.2,0-.19.37-.06.4h0a23.66,23.66,0,0,1,6.38,2.09C227.37,322.75,227.51,324.39,227.51,327Z"/><path class="cls-2" d="M398.41,319.78c1.61,0,4.1.12,3.94,3.89-.14,3.29-17,27.16-19,30.74-5.91-9-18.86-27.17-19-30.74-.1-2.92,2.33-3.89,4.49-3.89h.05c.13,0,.14-.4-.05-.4H322.29c-.19,0-.19.37-.06.4h.06a17.16,17.16,0,0,1,5.25,1.73,9.52,9.52,0,0,1,1.17.78,23.53,23.53,0,0,1,4.43,5.32L366,376.25v30.47c0,2.58-.15,4.25-1.89,5.13a23.59,23.59,0,0,1-6.37,2.09h-.06c-.12,0-.13.4.06.4h50.57c.19,0,.19-.37.06-.4h-.06a23.59,23.59,0,0,1-6.37-2.09c-1.74-.88-1.88-2.54-1.88-5.13V376.46L433,327.62a23.88,23.88,0,0,1,4.44-5.33,14.67,14.67,0,0,1,1.17-.9,9.46,9.46,0,0,1,3.71-1.61h.06c.13,0,.13-.4-.06-.4H398.4c-.19,0-.18.36,0,.39Z"/></g></svg>