<?xml version="1.0" encoding="UTF-8" standalone="no"?>
<!-- Created with Inkscape (http://www.inkscape.org/) -->

<svg
   width="187.82486mm"
   height="100.4924mm"
   viewBox="0 0 187.82486 100.4924"
   version="1.1"
   id="svg5"
   inkscape:version="1.1.2 (0a00cf5339, 2022-02-04)"
   sodipodi:docname="sponsors00.svg"
   inkscape:export-filename="/home/edoalvar/Dropbox/WhisperAero/FLOWCodes/FLOWPanel/docs/resources/images/sponsors00.png"
   inkscape:export-xdpi="96"
   inkscape:export-ydpi="96"
   xmlns:inkscape="http://www.inkscape.org/namespaces/inkscape"
   xmlns:sodipodi="http://sodipodi.sourceforge.net/DTD/sodipodi-0.dtd"
   xmlns:xlink="http://www.w3.org/1999/xlink"
   xmlns="http://www.w3.org/2000/svg"
   xmlns:svg="http://www.w3.org/2000/svg">
  <sodipodi:namedview
     id="namedview7"
     pagecolor="#ffffff"
     bordercolor="#666666"
     borderopacity="1.0"
     inkscape:pageshadow="2"
     inkscape:pageopacity="0.0"
     inkscape:pagecheckerboard="0"
     inkscape:document-units="mm"
     showgrid="false"
     inkscape:zoom="1.0633188"
     inkscape:cx="393.57905"
     inkscape:cy="112.85421"
     inkscape:window-width="1600"
     inkscape:window-height="873"
     inkscape:window-x="0"
     inkscape:window-y="27"
     inkscape:window-maximized="1"
     inkscape:current-layer="layer1"
     width="300mm"
     fit-margin-top="0"
     fit-margin-left="0"
     fit-margin-right="0"
     fit-margin-bottom="0" />
  <defs
     id="defs2" />
  <g
     inkscape:label="Layer 1"
     inkscape:groupmode="layer"
     id="layer1"
     transform="translate(-71.412231,-1.6817222)">
    <image
       width="48.220379"
       height="43.684799"
       preserveAspectRatio="none"
       xlink:href="BYU%20medallion_navy.svg"
       id="image864"
       x="211.01671"
       y="56.739189" />
    <g
       id="g989"
       transform="matrix(0.9707877,0,0,0.9707877,164.20432,-50.617311)">
      <image
         width="42.771011"
         height="7.9357605"
         preserveAspectRatio="none"
         xlink:href="sponsor-whisper.png"
         id="image852"
         x="51.052357"
         y="89.825417" />
      <image
         width="41.91581"
         height="31.302511"
         preserveAspectRatio="none"
         xlink:href="sponsor-whisper2.png"
         id="image983"
         x="49.784332"
         y="57.548473" />
    </g>
    <g
       id="g867"
       transform="matrix(0.44753302,0,0,0.44753302,97.626966,1.632772)">
      <path
         d="m 180.36,6.39 -8.43,17.55 12.53,-9.07 z"
         id="path2" />
      <g
         clip-rule="evenodd"
         fill-rule="evenodd"
         id="g22">
        <path
           d="m 185.27,16.22 -5.79,12.02 -26.66,19.36 -2.08,-6.28 z"
           id="path4" />
        <path
           d="m 178.06,31.23 -5.8,12.02 -8.18,5.95 h -10.75 z"
           id="path6" />
        <path
           d="m 153.76,53.81 c 0,-1.05 -0.38,-1.95 -1.11,-2.65 -0.71,-0.71 -1.6,-1.09 -2.66,-1.09 -1.04,0 -1.92,0.38 -2.66,1.09 -0.71,0.71 -1.09,1.6 -1.09,2.65 0,1.01 0.38,1.91 1.09,2.61 0.73,0.73 1.62,1.11 2.66,1.11 1.07,0 1.95,-0.38 2.66,-1.11 0.73,-0.71 1.11,-1.6 1.11,-2.61"
           id="path8" />
        <path
           d="m 155.4,55.53 4,-2.91 6.76,4.91 -8.2,5.94 z"
           id="path10" />
        <path
           d="m 115.55,14.87 4.11,-8.48 8.4,17.55 z"
           id="path12" />
        <path
           d="m 120.49,28.24 -5.77,-12.02 34.56,25.1 -2.08,6.28 z"
           id="path14" />
        <path
           d="M 127.71,43.25 121.94,31.23 146.66,49.2 H 135.91 Z"
           id="path16" />
        <path
           d="m 140.59,52.62 4.05,2.91 -2.58,7.94 -8.23,-5.94 z"
           id="path18" />
        <path
           d="m 149.98,69.25 -6.73,-4.89 6.73,-4.9 6.76,4.9 z"
           id="path20" />
      </g>
      <path
         d="m 135.6,93.6 3.92,-13.88 3.94,13.88 h 0.86 l 4.28,-15.12 h -0.8 l -3.92,13.81 -3.9,-13.81 h -0.91 l -3.9,13.81 -3.91,-13.81 h -0.8 l 4.28,15.12 z"
         id="path24" />
      <path
         d="m 157.03,85.71 h 9.01 v 0.77 h -9.01 z"
         id="path26" />
      <path
         d="m 175,78.48 v 15.13 h 0.77 V 87.2 h 4.64 c 0.09,0 0.17,-0.01 0.26,-0.02 l 4.05,6.42 h 0.91 l -4.13,-6.55 c 1.88,-0.48 3.28,-2.19 3.28,-4.22 0,-2.4 -1.96,-4.36 -4.36,-4.36 H 175.78 175 Z m 9.01,4.36 c 0,1.98 -1.61,3.59 -3.59,3.59 h -4.64 v -7.18 h 4.64 c 1.98,0 3.59,1.61 3.59,3.59"
         id="path28" />
      <path
         d="m 157.03,92.84 h 9.01 v 0.77 h -9.01 z"
         id="path30" />
      <path
         d="m 157.03,78.51 h 9.01 v 0.77 h -9.01 z"
         id="path32" />
      <path
         d="m 92.93,93.6 4.42,-12.46 4.43,12.46 h 2.04 l -5.4,-15.12 h -2.13 l -5.4,15.12 z"
         id="path34" />
      <path
         d="m 209.11,79.84 -1.36,-1.37 -6.14,6.14 -6.13,-6.14 -1.36,1.37 6.13,6.13 -6.13,6.14 1.36,1.36 6.13,-6.14 6.14,6.14 1.36,-1.36 -6.13,-6.14 z"
         id="path36" />
      <path
         d="m 114.36,93.6 v -6.55 h 7.45 v -1.54 h -7.45 V 80 h 7.45 v -1.52 h -8.99 V 93.6 Z"
         id="path38" />
    </g>
    <image
       preserveAspectRatio="none"
       inkscape:svg-dpi="300"
       width="48.513203"
       height="48.513203"
       xlink:href="NSF_Official_logo.svg"
       id="image2961"
       x="71.412231"
       y="53.660919" />
    <image
       preserveAspectRatio="none"
       inkscape:svg-dpi="300"
       width="52.364933"
       height="43.796127"
       xlink:href="NASA_logo.svg"
       id="image7771"
       x="73.153252"
       y="1.6817222" />
    <image
       width="54.317173"
       height="42.450958"
       preserveAspectRatio="none"
       xlink:href="cuas.png"
       id="image8191"
       x="135.47697"
       y="56.914421" />
  </g>
</svg>
